<svg version="1.1" viewBox="0.0 0.0 960.0 540.0" fill="none" stroke="none" stroke-linecap="square" stroke-miterlimit="10" xmlns:xlink="http://www.w3.org/1999/xlink" xmlns="http://www.w3.org/2000/svg"><clipPath id="g2c1a2c115b4_0_24.0"><path d="m0 0l960.0 0l0 540.0l-960.0 0l0 -540.0z" clip-rule="nonzero"/></clipPath><g clip-path="url(#g2c1a2c115b4_0_24.0)"><path fill="#000000" fill-opacity="0.0" d="m0 0l960.0 0l0 540.0l-960.0 0z" fill-rule="evenodd"/><path fill="#000000" fill-opacity="0.0" d="m162.80315 61.464565l634.3937 0l0 241.44882l-634.3937 0z" fill-rule="evenodd"/><path fill="#ff5757" d="m180.60002 327.26144q-1.59375 0 -4.53125 -1.46875q-2.9375 -1.46875 -5.328125 -3.46875q-2.40625 -2.0 -2.671875 -3.59375q-0.265625 -2.125 2.8125 -12.125q3.0625 -10.0 9.71875 -27.34375q6.671875 -17.59375 11.203125 -27.1875q4.53125 -9.609375 6.671875 -11.46875q1.0625 -1.078125 2.921875 -1.078125q2.9375 0 5.59375 2.546875q2.671875 2.53125 2.9375 6.0q0 0.265625 -13.328125 31.453125q-13.0625 30.140625 -12.265625 36.0q11.734375 -3.734375 39.203125 -26.390625q16.53125 -13.875 23.859375 -25.203125q7.34375 -11.328125 7.34375 -20.40625q0 -5.328125 -2.546875 -9.71875q-2.53125 -4.40625 -9.1875 -7.34375q-1.875 -0.796875 -1.875 -2.390625q0 -2.40625 2.9375 -2.40625q7.734375 0 13.468765 5.078125q5.734375 5.0625 5.734375 15.1875q0 10.671875 -9.07814 24.140625q-9.0625 13.453125 -25.859375 28.65625q-14.671875 13.0625 -26.546875 21.328125q-11.859375 8.265625 -21.1875 11.203125zm77.607254 53.875q-8.546875 0 -14.9375 -7.203125q-6.40625 -7.46875 -6.140625 -16.53125q3.203125 4.0 8.53125 9.328125q6.9375 6.671875 13.609375 6.671875q15.203125 0 32.796875 -24.265625q6.125 -8.546875 12.65625 -19.875q6.546875 -11.328125 12.40625 -25.203125l10.140625 -24.53125l-39.203125 30.671875q-18.140625 14.125 -29.0625 14.125q-5.875 0 -9.328125 -4.265625q-3.46875 -4.265625 -3.46875 -8.796875q0 -11.46875 19.71875 -37.59375q19.734375 -26.40625 29.609375 -26.40625q8.265625 0 8.265625 6.140625q0 2.40625 -23.734375 27.734375q-23.46875 25.0625 -23.46875 33.859375q0 3.46875 4.53125 3.46875q8.53125 0 37.0625 -22.125q11.734375 -9.34375 20.796875 -17.078125q9.078125 -7.734375 15.203125 -13.859375q2.140625 -2.671875 4.265625 -5.203125q2.140625 -2.53125 4.0 -5.203125q5.078125 -5.859375 10.140625 -5.859375q7.203125 0 7.203125 5.859375q0 1.078125 -11.203125 17.609375q-5.875 9.0625 -9.34375 14.0q-3.453125 4.921875 -3.984375 6.265625q-8.265625 16.0 -25.34375 46.65625q-25.859375 41.609375 -51.71875 41.609375zm65.578125 -151.73438q-1.859375 0.53125 -1.859375 -1.59375q0 -1.078125 1.0625 -1.875l25.875 -20.796875q2.921875 -2.40625 4.53125 -2.40625q1.328125 0 3.328125 1.734375q2.0 1.734375 2.0 3.609375q0 1.859375 -1.0625 3.0625q-1.0625 1.203125 -2.40625 2.265625q-1.59375 1.0625 -5.328125 3.328125q-3.734375 2.265625 -10.671875 5.734375q-6.125 2.9375 -10.0 4.671875q-3.859375 1.734375 -5.46875 2.265625zm81.615906 100.265625q-8.8125 0 -15.609375 -5.0625q-6.796875 -5.078125 -11.734375 -12.8125q-4.921875 -7.734375 -8.390625 -15.453125q-1.875 2.390625 -3.875 6.125q-2.0 3.734375 -4.65625 8.796875l-8.265625 16.53125q-9.609375 -3.734375 -9.609375 -10.125q0 -11.46875 34.9375 -63.734375q33.859375 -50.65625 46.65625 -59.734375q1.34375 -0.796875 4.265625 -0.796875q8.265625 0 8.265625 4.265625q0 0.796875 -3.734375 5.734375q-3.71875 4.9375 -9.328125 11.875q-5.59375 6.921875 -11.328125 14.0q-5.734375 7.0625 -10.0 12.265625q-4.265625 5.1875 -4.796875 6.53125q24.265625 -12.546875 38.65625 -12.546875q5.609375 0 10.265625 3.203125q4.671875 3.203125 7.328125 7.734375q2.671875 4.53125 2.140625 8.796875q-2.125 15.203125 -21.328125 25.078125q-15.46875 8.265625 -28.265625 8.265625q-13.875 0 -19.203125 -3.46875q-1.59375 -0.265625 -2.53125 0.671875q-0.9375 0.921875 -0.40625 2.796875q7.46875 33.0625 24.8125 33.0625q8.53125 0 22.796875 -9.859375q14.265625 -9.875 30.265625 -28.8125q1.859375 -1.859375 3.46875 -1.859375q1.328125 0 1.328125 1.59375q0 1.34375 -1.875 4.0q-7.71875 9.328125 -18.0 19.328125q-10.265625 10.0 -21.203125 16.8125q-10.921875 6.796875 -21.046875 6.796875zm-15.46875 -48.0q12.0 0 31.453125 -9.875q22.40625 -11.1875 22.40625 -23.71875q0 -2.140625 -2.40625 -4.265625q-2.390625 -2.140625 -5.0625 -2.140625q-14.390625 0 -33.59375 11.203125q-21.0625 12.796875 -25.59375 28.0q2.921875 0 7.59375 0.40625q4.671875 0.390625 5.203125 0.390625zm83.71881 46.125q-6.390625 0 -12.796875 -4.53125q-6.390625 -4.53125 -7.203125 -10.65625q-2.65625 -20.546875 25.875 -48.8125q28.265625 -28.265625 50.921875 -28.265625q6.140625 0 9.609375 2.9375q1.859375 1.875 2.796875 5.078125q0.9375 3.1875 1.46875 3.1875q1.0625 0 1.859375 -0.390625q0.8125 -0.40625 1.875 -0.40625q3.203125 0 5.59375 2.40625q2.40625 2.390625 2.671875 4.265625q0.265625 0.53125 -17.0625 26.390625q-17.34375 25.34375 -15.734375 34.40625q1.328125 6.125 5.859375 6.125q13.875 0 50.671875 -45.859375q0.796875 -1.0625 1.59375 -1.0625q1.328125 0 1.328125 1.859375q0 2.140625 -2.390625 5.328125q-33.859375 45.609375 -52.0 45.609375q-2.40625 0 -4.53125 -0.796875q-11.734375 -4.546875 -11.734375 -17.609375q0 -4.53125 1.0625 -9.0625l-16.53125 16.0q-7.46875 7.46875 -13.46875 10.671875q-6.0 3.1875 -9.734375 3.1875zm-2.390625 -5.859375q15.46875 0 42.125 -33.875l28.265625 -38.921875q-2.125 -3.734375 -6.921875 -3.734375q-16.265625 0 -44.0 26.125q-28.796875 26.671875 -25.875 44.0q1.34375 6.40625 6.40625 6.40625zm155.9873 10.390625q-7.734375 0 -15.328125 -1.59375q-7.59375 -1.59375 -13.734375 -5.0625q-1.859375 -1.0625 -5.46875 -3.46875q-3.59375 -2.40625 -9.203125 -6.671875q-4.265625 2.9375 -8.0 5.203125q-3.71875 2.265625 -7.1875 2.265625q-6.140625 0 -6.140625 -6.671875q0 -2.125 1.46875 -5.71875q1.46875 -3.609375 3.328125 -3.609375q1.34375 0 1.34375 1.875q0 1.328125 -0.265625 2.125q0 0.265625 -0.140625 0.671875q-0.125 0.390625 -0.125 0.671875q0 2.65625 2.65625 2.65625q3.46875 0 7.734375 -3.203125l-10.125 -7.734375q-0.546875 -0.53125 -0.546875 -1.328125q0 -1.859375 2.671875 -4.390625q2.671875 -2.546875 4.796875 -2.546875q0.8125 0 12.265625 9.078125q10.671875 -12.0 22.140625 -23.734375q8.53125 -9.0625 15.0625 -15.46875q6.53125 -6.40625 11.328125 -9.859375q-21.0625 -6.40625 -31.1875 -6.40625q-6.40625 0 -10.40625 2.796875q-4.0 2.796875 -4.0 7.0625q0 3.46875 3.734375 6.40625q2.140625 1.59375 2.140625 2.671875q0 1.59375 -1.34375 1.59375q-2.65625 0 -7.203125 -5.328125q-4.265625 -5.34375 -4.265625 -10.9375q0 -5.59375 4.125 -8.53125q4.140625 -2.9375 10.265625 -4.0q6.140625 -1.0625 12.015625 -1.0625q8.53125 0 18.65625 3.203125q10.140625 3.1875 20.0 6.390625q3.734375 -2.140625 8.0 -2.140625q11.203125 0 11.203125 6.671875q0 2.671875 -3.328125 4.9375q-3.328125 2.265625 -8.140625 2.265625q-5.0625 0 -9.0625 -1.875q-25.0625 15.46875 -54.390625 49.609375l9.59375 7.46875q6.140625 4.53125 13.46875 6.0q7.328125 1.453125 14.53125 1.453125q11.734375 0 20.0 -4.265625q8.265625 -4.265625 8.265625 -12.796875q0 -3.46875 -1.0625 -5.859375q-0.53125 -1.609375 -0.53125 -1.875q0 -1.859375 2.65625 -1.859375q1.34375 0 1.875 1.328125q2.125 4.796875 2.125 9.0625q0 10.671875 -10.0 17.609375q-10.0 6.921875 -26.265625 6.921875zm47.476196 48.8125q-8.546875 0 -14.9375 -7.203125q-6.40625 -7.46875 -6.140625 -16.53125q3.203125 4.0 8.53125 9.328125q6.9375 6.671875 13.609375 6.671875q15.203125 0 32.796875 -24.265625q6.125 -8.546875 12.65625 -19.875q6.546875 -11.328125 12.40625 -25.203125l10.140625 -24.53125l-39.203125 30.671875q-18.140625 14.125 -29.0625 14.125q-5.875 0 -9.328125 -4.265625q-3.46875 -4.265625 -3.46875 -8.796875q0 -11.46875 19.71875 -37.59375q19.734375 -26.40625 29.609375 -26.40625q8.265625 0 8.265625 6.140625q0 2.40625 -23.734375 27.734375q-23.46875 25.0625 -23.46875 33.859375q0 3.46875 4.53125 3.46875q8.53125 0 37.0625 -22.125q11.734375 -9.34375 20.796875 -17.078125q9.078125 -7.734375 15.203125 -13.859375q2.140625 -2.671875 4.265625 -5.203125q2.140625 -2.53125 4.0 -5.203125q5.078125 -5.859375 10.140625 -5.859375q7.203125 0 7.203125 5.859375q0 1.078125 -11.203125 17.609375q-5.875 9.0625 -9.34375 14.0q-3.453125 4.921875 -3.984375 6.265625q-8.265625 16.0 -25.34375 46.65625q-25.859375 41.609375 -51.71875 41.609375z" fill-rule="nonzero"/></g></svg>